<svg width="31" height="16" viewBox="0 0 31 16" fill="none" xmlns="http://www.w3.org/2000/svg">
<path d="M14.96 7.68C14.96 12.12 12.04 15.24 7.84 15.24C3.66 15.24 0.78 12.14 0.78 7.68C0.78 3.24 3.68 0.12 7.86 0.12C12.04 0.12 14.96 3.22 14.96 7.68ZM12.26 7.68C12.26 4.56 10.54 2.58 7.86 2.58C5.18 2.58 3.46 4.56 3.46 7.68C3.46 10.8 5.18 12.78 7.86 12.78C10.54 12.78 12.26 10.76 12.26 7.68ZM30.6827 7.68C30.6827 12.12 27.7627 15.24 23.5627 15.24C19.3827 15.24 16.5027 12.14 16.5027 7.68C16.5027 3.24 19.4027 0.12 23.5827 0.12C27.7627 0.12 30.6827 3.22 30.6827 7.68ZM27.9827 7.68C27.9827 4.56 26.2627 2.58 23.5827 2.58C20.9027 2.58 19.1827 4.56 19.1827 7.68C19.1827 10.8 20.9027 12.78 23.5827 12.78C26.2627 12.78 27.9827 10.76 27.9827 7.68Z" fill="#121214"/>
</svg>
