<svg width="1249" height="300" viewBox="0 0 1249 300" fill="none" xmlns="http://www.w3.org/2000/svg">
<g clip-path="url(#clip0_92_4324)">
<path d="M194.95 285H10.85V243.35L137.2 70.45H13.65V29.15H192.85V69.05L65.45 243.7H194.95V285Z" fill="#DADAE0"/>
<path d="M393.25 285H234.35V29.15H393.25V70.45H279.15V136.25H381.35V175.8H279.15V243.7H393.25V285Z" fill="#DADAE0"/>
<path d="M486.45 285H442.35V29.15H486.8L606.85 210.45V29.15H650.95V285H606.85L486.45 103.7V285Z" fill="#DADAE0"/>
<path d="M753.15 29.15V285H708.35V29.15H753.15Z" fill="#DADAE0"/>
<path d="M787.95 70.45V29.15H982.55V70.45H907.65V285H862.85V70.45H787.95Z" fill="#DADAE0"/>
<path d="M1062.15 285H1017.35V29.15H1062.15V134.85H1175.55V29.15H1220.35V285H1175.55V176.5H1062.15V285Z" fill="#DADAE0"/>
</g>
<defs>
<clipPath id="clip0_92_4324">
<rect width="1249" height="300" fill="white"/>
</clipPath>
</defs>
</svg>
